<svg width="776.64" height="479.99" version="1.1" viewBox="0 0 205.49 127" xmlns="http://www.w3.org/2000/svg">
 <g transform="translate(292.87 124.73)">
  <rect x="-292.87" y="-124.73" width="205.49" height="127" fill="#fff" stroke-opacity="0"/>
  <g transform="matrix(.21338 0 0 .21338 -268.88 -104)">
   <g fill="#b1b1b1">
    <path transform="translate(-230.89,-249.55)" d="m527.2 638.21v-67.888h-22v67.888a13.983 13.983 0 0 0-7 12.112h36a13.983 13.983 0 0 0-7-12.112z"/>
    <path transform="translate(-230.89,-249.55)" d="m586.2 638.21v-67.888h-22v67.888a13.983 13.983 0 0 0-7 12.112h36a13.983 13.983 0 0 0-7-12.112z"/>
    <circle cx="314.33" cy="238.55" r="145.45"/>
   </g>
   <g fill="#fff">
    <ellipse cx="314.33" cy="311.44" rx="57.632" ry="19.211"/>
    <circle cx="262.19" cy="205.62" r="24.699"/>
    <circle cx="366.48" cy="205.62" r="24.699"/>
   </g>
   <g fill="#3f3d56">
    <circle cx="262.68" cy="205.32" r="19.211"/>
    <circle cx="366.73" cy="205.32" r="19.211"/>
    <ellipse cx="314.33" cy="87.098" rx="96.053" ry="74.098"/>
    <ellipse cx="314.33" cy="18" rx="38" ry="18"/>
    <path transform="translate(-230.89,-249.55)" d="m546.28 509.3c6.323-6.4063 16.047-6.5342 24.256-4.4246 9.786 2.5149 18.116 8.5742 27.178 12.799a49.556 49.556 0 0 0 14.58 4.5478 38.279 38.279 0 0 0 36.639-17.086 38.758 38.758 0 0 0 4.5421-30.917 1.5013 1.5013 0 0 0-2.8928 0.79752 35.707 35.707 0 0 1-3.3442 27.113 35.297 35.297 0 0 1-35.304 17.038 49.627 49.627 0 0 1-14.229-4.8121c-8.7615-4.2897-16.985-10.004-26.549-12.417-9.2141-2.3248-19.948-1.9008-26.997 5.241-1.3575 1.3754 0.76245 3.4981 2.1213 2.1213z"/>
    <path transform="translate(-230.89,-249.55)" d="m546.28 507.18c-6.2293-6.3114-15.39-7.3698-23.77-5.9268-9.6154 1.6557-17.887 6.8887-26.379 11.37-8.6772 4.5788-17.928 8.0819-27.891 6.4858a35.209 35.209 0 0 1-23.175-14.039 35.777 35.777 0 0 1-5.208-30.052 1.5013 1.5013 0 0 0-2.8928-0.79752 38.809 38.809 0 0 0 2.8229 27.89 37.472 37.472 0 0 0 20.979 18.184c9.4141 3.348 19.351 2.63 28.521-1.1161 9.4262-3.8507 17.775-10.137 27.456-13.368 8.9371-2.9832 20.26-3.7584 27.416 3.4918 1.3583 1.3762 3.4794-0.7453 2.1213-2.1213z"/>
    <circle cx="314.36" cy="258.5" r="11"/>
   </g>
   <circle cx="254.31" cy="198.77" r="4" fill="#fff"/>
   <circle cx="376.31" cy="198.77" r="4" fill="#fff"/>
   <path transform="translate(-230.89,-249.55)" d="m286.24 605.24a158.39 158.39 0 0 0 7.399 43.785c0.10309 0.32895 0.21112 0.653 0.31912 0.98195h27.612c-0.0295-0.2946-0.0589-0.62355-0.0884-0.98195-1.8412-21.166-12.456-149.99 0.23569-172.02-1.1096 1.7872-37.619 60.979-35.478 128.23z" fill="#e6e6e6"/>
   <path transform="translate(-230.89,-249.55)" d="m288.32 649.03c0.23077 0.32895 0.47134 0.65789 0.71683 0.98195h20.714c-0.15711-0.27986-0.33877-0.6088-0.54989-0.98195-3.4221-6.1765-13.551-24.642-22.953-43.785-10.104-20.572-19.374-41.924-18.593-49.652-0.24057 1.743-7.232 54.876 20.665 93.437z" fill="#e6e6e6"/>
   <rect y="398.9" width="738.22" height="2" fill="#3f3d56"/>
   <path transform="translate(-230.89,-249.55)" d="m914.2 649.32-58-38.681v-299.32a2 2 0 0 0-2-2h-3a2 2 0 0 0-2 2v297.99l-59.988 40.007 7.6707-0.0985 52.317-35.088v35.186h7v-33.853l50.329 33.755z" fill="#3f3d56"/>
   <path transform="translate(-230.89,-249.55)" d="m751.2 340.32a2.0023 2.0023 0 0 0-2 2v180a2.0026 2.0026 0 0 0 2 2h203a2.0026 2.0026 0 0 0 2-2v-180a2.0023 2.0023 0 0 0-2-2z" fill="#e6e6e6"/>
   <path transform="translate(-230.89,-249.55)" d="m841.37 338.32a3.0062 3.0062 0 0 0 2.8291 2h18a3.0062 3.0062 0 0 0 2.8291-2z" fill="#3f3d56"/>
   <path transform="translate(-230.89,-249.55)" d="m800.37 526.32h105.66a3.0062 3.0062 0 0 0-2.8291-2h-100a3.0062 3.0062 0 0 0-2.8291 2z" fill="#3f3d56"/>
   <g fill="#b1b1b1">
    <circle cx="573.44" cy="154.57" r="27.835" opacity=".3"/>
    <circle cx="638.23" cy="185.29" r="27.835" opacity=".3"/>
    <circle cx="601.5" cy="186.66" r="40.082" opacity=".3"/>
    <circle cx="589.36" cy="201.22" r="40.082" opacity=".3"/>
    <circle cx="662.92" cy="212.95" r="40.082" opacity=".3"/>
    <circle cx="650.27" cy="155.14" r="40.082" opacity=".3"/>
   </g>
  </g>
  <g transform="translate(6.0476,-3.2128)">
   <rect x="-196.49" y="-100.14" width="60.741" height="31.329" ry="8.342" fill="#f2f2f2" stroke-opacity="0"/>
   <text x="-166.02721" y="-86.7994" fill="#000000" font-family="Montserrat" font-size="6.6146px" font-weight="300" stroke-width=".26458" text-anchor="middle" style="line-height:1.25" xml:space="preserve"><tspan x="-166.02721" y="-86.7994" text-align="center">V치코 obr치zok </tspan><tspan x="-166.02721" y="-78.531174" text-align="center">sa pracov치va.</tspan></text>
  </g>
  <path transform="matrix(.91726 -.40062 .46902 .7835 19.961 -93.003)" d="m-192.74-66.032c-0.0386-0.0669 3.8241-6.6235 3.8627-6.6904s3.7855-6.6904 3.8627-6.6904 3.8241 6.6235 3.8627 6.6904 3.9013 6.6235 3.8627 6.6904-7.6482 0-7.7254 0c-0.0773 0-7.6868 0.0669-7.7254 0z" fill="#f2f2f2" stroke-opacity="0"/>
 </g>
</svg>
